<svg version="1.1" id="Layer_1" xmlns="http://www.w3.org/2000/svg" xmlns:xlink="http://www.w3.org/1999/xlink" x="0px" y="0px"
	 width="100%" viewBox="0 0 1024 1024" enable-background="new 0 0 1024 1024" xml:space="preserve">
<path fill="#000000" opacity="1.000000" stroke="none" 
	d="
M439.309479,540.844727 
	C405.846893,536.009460 372.827820,531.091003 339.743561,526.658997 
	C314.732849,523.308655 289.720337,519.954163 264.630127,517.174744 
	C248.112778,515.345032 231.838562,511.859863 215.799469,507.413483 
	C215.182373,507.242371 214.456711,507.227203 214.307571,505.998901 
	C219.377304,505.550873 224.445023,505.053314 229.521408,504.670563 
	C233.408752,504.377441 234.779221,502.570770 232.758728,499.099487 
	C220.575165,478.167725 222.396454,455.227325 223.229263,432.471558 
	C223.618088,421.847351 224.970551,411.315491 227.654373,400.968140 
	C230.061493,391.687744 235.213348,384.313812 244.704926,382.618195 
	C259.551331,379.965942 270.982697,371.283051 283.192963,363.684906 
	C305.216522,349.980225 328.304871,338.615570 353.950073,333.327393 
	C369.430939,330.135193 385.107971,328.566345 400.881073,327.552643 
	C420.824860,326.270874 440.777557,325.070953 460.747833,325.766968 
	C483.154877,326.547943 505.746887,326.985077 527.445068,333.299042 
	C551.446228,340.283112 573.270203,352.111267 593.943604,366.067932 
	C596.728699,367.948151 598.671875,369.828674 603.019714,367.479095 
	C609.795166,363.817566 627.377747,372.436768 627.279724,381.125732 
	C627.243347,384.348694 628.747314,385.115723 631.662170,385.822357 
	C648.172546,389.825043 664.968811,389.139648 681.740601,389.837830 
	C710.526428,391.036133 737.547668,398.491486 760.841248,416.421356 
	C772.365723,425.292114 781.326050,436.311340 787.956848,449.293884 
	C791.481445,456.194672 791.957458,463.110840 789.979919,470.532227 
	C788.058167,477.744141 786.844238,485.143799 784.957397,492.366394 
	C784.220947,495.185364 784.701477,497.165192 786.660767,499.112427 
	C787.715698,500.160858 788.591980,501.403259 789.464661,502.618561 
	C795.958923,511.663330 791.151123,522.429810 779.927551,523.228638 
	C773.807678,523.664124 767.659180,523.948181 761.526001,524.245667 
	C757.313782,524.450012 753.835266,525.724487 749.334473,528.811279 
	C772.557312,532.893372 795.170715,534.039917 817.925049,539.963684 
	C813.044800,543.864075 807.931641,543.753296 803.267944,544.243591 
	C775.809326,547.130737 748.248718,548.412720 720.660583,549.544678 
	C680.068481,551.210266 639.470032,551.451843 598.872742,550.953491 
	C582.564209,550.753357 566.227661,550.986206 549.939758,550.182861 
	C523.697937,548.888550 497.424805,548.231201 471.237335,545.638489 
	C460.615936,544.586914 450.194397,542.751953 439.309479,540.844727 
M294.410553,366.270874 
	C288.957703,368.126221 284.519958,371.713013 279.984589,375.035034 
	C274.687775,378.914703 275.099548,380.738007 281.056366,383.514038 
	C286.517303,386.058960 292.217712,388.210632 298.100586,392.550568 
	C293.770477,392.872223 290.813171,391.931793 287.866974,391.213928 
	C276.160278,388.361572 264.249664,387.355377 252.255249,387.473602 
	C243.535919,387.559601 236.872391,391.476593 236.765060,397.803497 
	C236.671448,403.320282 234.711945,407.943512 233.351425,412.925476 
	C233.051605,414.023438 232.026154,415.379395 233.496979,416.675079 
	C235.578751,414.086243 237.553818,411.471375 239.693863,408.999329 
	C245.544540,402.240936 253.592422,400.506989 260.274750,406.216187 
	C266.309418,411.372009 271.968719,413.440063 279.817505,411.842773 
	C285.623810,410.661224 291.698456,412.394897 297.607422,413.298492 
	C299.710968,413.620209 302.092834,413.803894 302.407959,411.205536 
	C303.156799,405.031250 306.481445,399.997620 309.137054,394.675201 
	C310.457886,392.028015 310.034821,390.729492 307.412445,389.146637 
	C301.726166,385.714417 296.211548,381.957397 290.875458,377.997955 
	C286.359253,374.646881 286.587982,373.474579 291.248474,370.560852 
	C292.910889,369.521484 294.929474,368.879578 296.570923,366.787415 
	C298.962280,366.502380 300.895721,365.149445 302.964325,364.088593 
	C320.776825,354.953644 338.962738,346.664429 358.836945,343.205109 
	C374.428101,340.491333 388.088409,343.563751 398.252228,357.304535 
	C406.397400,368.316254 413.926514,379.665741 420.691864,391.544342 
	C421.563324,393.074402 422.754974,394.629669 422.192383,396.897156 
	C410.726135,401.271606 397.651947,396.794556 386.065369,403.030670 
	C385.049072,398.593597 381.661163,397.721497 377.831848,397.326935 
	C374.531708,396.986908 371.274567,396.240540 367.976562,395.866608 
	C351.638611,394.014160 335.294434,392.216339 318.949646,390.424713 
	C316.487976,390.154877 314.193726,390.645355 312.874115,392.973083 
	C309.921722,398.181274 306.800323,403.317291 305.065857,409.118683 
	C304.104187,412.335297 305.091583,414.305267 308.592926,414.715759 
	C316.835480,415.681976 325.056946,416.969421 333.327118,417.497406 
	C337.299683,417.751007 341.172729,419.922424 345.828613,418.531189 
	C342.407776,413.998688 336.527649,414.822266 332.144745,410.670410 
	C339.146515,411.476715 345.041260,411.928467 350.856903,412.869293 
	C366.250305,415.359497 381.574219,418.297089 396.993805,420.601471 
	C408.506897,422.322021 419.914520,425.390320 432.002411,423.816223 
	C431.417114,427.783936 427.156036,429.849091 427.950378,434.535278 
	C433.179474,430.802032 436.100311,425.644257 440.234467,421.675995 
	C450.842621,411.493469 465.589233,409.545471 478.409943,416.681000 
	C485.837036,420.814575 490.459381,427.534851 495.290405,434.102570 
	C496.983246,436.403931 498.633606,438.387909 501.682343,439.266205 
	C522.115601,445.152618 541.064514,454.427704 559.429626,464.993988 
	C562.579590,466.806335 565.603882,467.532928 568.995605,464.981171 
	C571.934204,462.770355 575.542114,461.763306 579.303650,461.650970 
	C587.814575,461.396759 596.279968,462.304901 604.700928,463.184601 
	C627.781067,465.595673 650.568115,471.352753 674.052856,468.997314 
	C675.198608,468.882385 676.393860,469.005341 677.539429,469.185974 
	C684.813782,470.333099 692.160400,469.782043 699.463867,470.182739 
	C708.793335,470.694550 718.046143,468.021973 727.288635,469.052521 
	C739.371399,470.399841 751.260986,469.032043 763.069763,467.315063 
	C769.648193,466.358551 775.888428,463.319458 780.735596,458.326172 
	C776.052490,460.503601 771.583069,463.386993 766.454468,464.137390 
	C751.484741,466.327484 736.378052,467.952606 721.284851,467.883667 
	C698.195679,467.778290 675.097168,467.938354 651.996704,466.935486 
	C640.786743,466.448792 630.351196,464.654236 620.204651,459.952820 
	C610.063599,455.253876 599.536499,451.227936 588.261841,450.629272 
	C576.236877,449.990692 564.599121,447.244354 552.780884,445.471130 
	C536.790222,443.071899 523.293579,436.501892 512.812683,424.112152 
	C510.736877,421.658264 508.195557,419.202698 509.204041,415.116150 
	C513.700317,414.414337 518.127380,414.397278 522.582703,415.187500 
	C545.634094,419.276154 567.709412,426.489319 589.111389,435.880951 
	C590.853760,436.645538 592.552307,437.775909 594.835144,437.370758 
	C593.862915,434.662445 591.604065,433.769531 589.658875,432.619781 
	C573.857788,423.280426 557.506348,415.067657 540.254333,408.726593 
	C516.846558,400.122925 492.956360,394.148468 467.762695,394.161743 
	C457.597260,394.167084 447.444122,393.760620 437.366211,395.288727 
	C432.644135,396.004730 429.869537,394.726166 427.669495,390.072571 
	C421.394226,376.798981 413.700928,364.314087 404.669556,352.694427 
	C401.860962,349.080933 399.045410,345.472870 395.475922,340.890320 
	C426.975555,338.513458 457.344879,336.769562 487.839142,337.644226 
	C464.800201,334.938965 441.702179,334.965881 418.583893,335.623718 
	C405.666321,335.991272 392.855103,338.425201 379.856293,337.429840 
	C376.236816,337.152679 372.535095,337.519287 368.903717,337.900848 
	C351.323578,339.748352 334.784912,345.223480 318.999542,352.948395 
	C310.832458,356.945160 301.990112,359.816559 294.410553,366.270874 
M497.622650,487.179840 
	C498.010956,480.153687 497.113281,473.220001 495.541077,466.425598 
	C492.333527,452.564209 486.629761,440.218842 473.158936,433.278320 
	C468.830170,431.047913 464.282776,429.932129 459.226807,430.956543 
	C449.382324,432.951263 443.222870,439.382751 438.553009,447.583649 
	C431.216156,460.468292 429.042633,474.606018 430.550629,489.054352 
	C432.062134,503.536316 436.803345,517.002991 448.157990,527.102905 
	C459.542450,537.229248 475.740753,535.263428 485.065247,523.272827 
	C493.182953,512.833984 496.120422,500.782593 497.622650,487.179840 
M389.287018,479.327881 
	C386.461517,479.263824 383.614899,479.399475 380.814056,479.102692 
	C364.793274,477.405151 349.109955,473.738739 333.303772,470.791718 
	C331.353302,470.428040 329.561646,470.097931 328.026581,472.017670 
	C328.745026,472.523254 329.111664,472.892792 329.555267,473.077423 
	C354.927521,483.636963 381.386597,490.732208 407.979340,497.315491 
	C411.387543,498.159210 415.322571,499.452454 419.583099,497.456360 
	C415.930695,483.266266 418.556946,468.989990 418.397919,454.702026 
	C414.444946,460.111115 412.275360,466.313324 407.875793,471.198822 
	C403.107483,476.493835 397.019592,478.613525 389.287018,479.327881 
M583.679138,401.965271 
	C577.347717,399.090332 570.314697,397.956299 563.412598,394.312408 
	C566.433167,393.226196 569.049927,394.083862 571.298645,392.367981 
	C557.922729,388.755066 531.006104,388.403809 526.724609,392.149323 
	C558.094482,399.513184 588.427979,409.026947 618.630615,419.201233 
	C608.009949,411.812073 596.195190,407.045135 583.679138,401.965271 
M616.045471,512.812439 
	C596.250610,517.185791 576.398132,518.004272 556.296448,513.343689 
	C557.019287,516.549988 558.047791,518.580505 561.481995,518.671875 
	C567.948730,518.843994 574.407776,519.329041 580.868103,519.715210 
	C590.322510,520.280396 599.790344,520.698425 609.223267,521.516296 
	C615.440308,522.055298 621.029236,521.344360 626.000549,517.109741 
	C629.277344,514.318604 633.042480,512.107300 636.512573,509.533356 
	C637.846497,508.543915 639.599243,507.747406 639.909546,504.844025 
	C632.114075,508.430389 624.647156,511.046844 616.045471,512.812439 
M366.241058,384.800751 
	C363.852478,383.256592 360.799622,382.822327 358.017578,380.170624 
	C368.405426,379.144806 377.894775,377.637634 387.303162,381.745026 
	C383.866455,375.390869 378.274017,372.173035 372.194916,369.952179 
	C364.690186,367.210571 357.458740,368.510986 350.927002,373.084503 
	C348.346680,374.891235 346.638824,377.482880 347.284607,380.764404 
	C347.922119,384.003845 350.641418,385.080872 353.569489,385.587677 
	C357.164032,386.209869 360.759094,386.843536 364.372803,387.333099 
	C365.790863,387.525238 367.755402,387.879303 366.241058,384.800751 
M255.455170,421.005096 
	C254.934662,418.248260 252.678726,419.070160 251.088150,419.123993 
	C244.868530,419.334534 241.164200,423.384308 238.282623,428.257568 
	C234.403381,434.818024 232.686127,442.135712 231.833847,449.608215 
	C230.071152,465.063049 231.396667,480.128754 238.689331,494.184021 
	C241.126282,498.880737 244.628418,502.654938 250.101578,503.945862 
	C253.988342,504.862610 257.030029,503.036713 258.120728,498.831848 
	C252.911987,499.768005 248.020142,500.455536 243.785248,495.972137 
	C239.459717,491.392731 240.715393,486.737946 242.768265,481.340668 
	C240.651413,482.977051 241.306976,485.678223 239.126190,486.465454 
	C232.567596,478.125244 231.271606,453.235870 237.010345,447.466461 
	C232.416183,436.853851 241.967239,422.434784 253.513428,422.484161 
	C254.060089,422.486511 254.609512,421.848450 255.455170,421.005096 
M697.042847,410.372925 
	C705.035156,413.923401 712.073669,419.456238 721.512573,422.804565 
	C712.797180,411.766388 680.668640,396.631256 673.900208,400.115295 
	C681.571289,403.491028 688.979187,406.750916 697.042847,410.372925 
M762.314148,432.707825 
	C762.403137,435.144928 762.294556,437.669159 765.321350,439.227112 
	C766.845886,437.777618 769.125488,436.502014 768.457153,434.159424 
	C767.634521,431.275726 766.180542,428.390106 762.763611,427.706238 
	C760.894836,429.154083 762.092834,430.600464 762.314148,432.707825 
M531.470947,428.724915 
	C528.887024,430.188232 530.010315,431.666962 531.603271,432.876678 
	C534.532043,435.100769 537.744751,435.253815 541.629150,433.905945 
	C538.700745,430.911621 535.759644,429.103485 531.470947,428.724915 
M328.229309,503.448242 
	C334.438049,503.837463 340.579895,505.340485 348.094513,504.591797 
	C340.535217,502.577545 334.034698,502.150330 327.462067,502.380035 
	C326.976105,502.397003 326.894897,502.681000 327.246307,503.040710 
	C327.356415,503.153442 327.531372,503.202820 328.229309,503.448242 
M668.336853,519.765747 
	C661.305847,518.620483 654.361328,519.752625 647.247986,520.315369 
	C654.362061,520.315369 661.317139,520.315369 668.336853,519.765747 
M262.151001,495.972168 
	C263.304840,493.695801 265.460968,491.750397 264.609955,488.721008 
	C261.137024,490.335388 261.213715,493.829437 260.327698,496.687836 
	C260.136353,497.305115 261.299347,496.734497 262.151001,495.972168 
z"/>
<path fill="#000000" opacity="1.000000" stroke="none" 
	d="
M501.749939,570.395142 
	C505.844879,570.470947 509.518616,570.685242 513.165710,570.463135 
	C516.145569,570.281677 517.385376,571.170959 517.378174,574.305969 
	C517.309753,604.121826 517.307495,633.938049 517.380676,663.753906 
	C517.388550,666.969727 516.190552,668.269653 512.998474,668.197266 
	C495.439362,667.799316 499.003662,670.814209 498.707611,654.779419 
	C498.483154,642.623840 498.675842,630.460876 498.623108,618.301514 
	C498.616150,616.699524 499.108490,614.982788 497.855682,613.228210 
	C495.873657,613.987122 495.676331,615.752991 495.204254,617.458496 
	C491.036224,632.516174 486.735016,647.537537 482.662689,662.620789 
	C481.698425,666.192261 480.599548,668.353638 476.159210,668.410583 
	C471.405609,668.471497 470.799927,665.568115 469.882416,662.314697 
	C464.741852,644.087158 459.579163,625.865906 454.409851,607.646545 
	C454.381500,607.546631 454.151611,607.503906 453.348175,607.092957 
	C453.348175,625.633179 453.208313,643.837952 453.444031,662.037842 
	C453.504883,666.737000 452.278687,668.490967 447.331604,668.301147 
	C433.534363,667.771606 435.744873,669.847656 435.680786,656.585022 
	C435.551147,629.767822 435.630249,602.949646 435.647919,576.131836 
	C435.649017,574.503784 435.278748,572.805237 436.552063,570.651917 
	C443.313446,570.651917 450.425873,570.653015 457.538300,570.651306 
	C460.143188,570.650696 460.727997,572.533142 461.292725,574.545959 
	C465.599609,589.896606 469.961945,605.231750 474.229523,620.593201 
	C474.681152,622.218872 475.213226,623.739624 476.377991,625.488708 
	C477.853546,623.728943 478.302582,621.735474 478.863251,619.769409 
	C482.827271,605.869202 486.814697,591.975647 490.802490,578.082275 
	C493.051270,570.247437 493.057983,570.249390 501.749939,570.395142 
z"/>
<path fill="#000000" opacity="1.000000" stroke="none" 
	d="
M293.692810,625.999878 
	C293.686890,609.011841 293.782806,592.522644 293.605438,576.036499 
	C293.562012,572.000854 294.729675,570.553406 298.950653,570.535095 
	C314.674957,570.466858 314.714417,570.308716 320.803467,585.015015 
	C326.131470,597.883301 331.355835,610.794556 337.162323,624.998840 
	C338.082367,607.982666 337.641357,592.382141 337.541931,576.796936 
	C337.511658,572.052185 338.800781,570.467590 343.682922,570.536499 
	C356.328613,570.715027 356.338165,570.492126 356.339996,583.232483 
	C356.343719,609.380249 356.348206,635.528076 356.333160,661.675842 
	C356.329437,668.163147 356.294678,668.247803 349.625977,668.167603 
	C334.981140,667.991577 338.657654,670.019226 333.051086,657.507019 
	C326.467285,642.813782 319.964691,628.084167 312.717133,613.540405 
	C312.717133,623.213867 312.687714,632.887512 312.727020,642.560791 
	C312.755402,649.543457 312.791443,656.528076 312.990387,663.507080 
	C313.086853,666.891418 311.831696,668.436035 308.335663,668.239807 
	C305.180695,668.062622 301.999054,668.021179 298.847168,668.213989 
	C294.955780,668.452087 293.574585,666.872986 293.630615,662.972778 
	C293.805237,650.817383 293.694214,638.657837 293.692810,625.999878 
z"/>
<path fill="#000000" opacity="1.000000" stroke="none" 
	d="
M194.054337,656.841797 
	C191.265854,649.837708 188.404282,643.263123 186.101639,636.498291 
	C184.751312,632.531189 182.133911,631.948730 178.741989,632.431763 
	C175.132889,632.945679 176.318588,635.926331 176.287827,637.997498 
	C176.161652,646.489868 176.141495,654.986694 176.278198,663.478760 
	C176.333191,666.895447 175.076828,668.347778 171.603989,668.177856 
	C168.115479,668.007202 164.595367,667.965942 161.117126,668.232971 
	C156.756104,668.567688 155.724487,666.407471 155.761627,662.545044 
	C155.876907,650.554443 155.771469,638.561768 155.772461,626.569946 
	C155.773865,609.748108 155.889221,592.925354 155.737274,576.104980 
	C155.700562,572.039551 156.961456,570.480957 161.162842,570.576355 
	C171.317368,570.806946 181.481384,570.575256 191.640228,570.671448 
	C207.472504,570.821350 217.775818,581.021606 218.329224,596.945435 
	C218.887222,613.001404 216.850647,617.528381 203.701813,629.048889 
	C209.047791,641.537476 214.446503,654.149292 220.143082,667.456909 
	C212.980804,667.456909 206.550018,667.443542 200.119370,667.464233 
	C197.887299,667.471375 197.529999,665.637024 196.901443,664.177856 
	C195.915176,661.888245 195.102341,659.523987 194.054337,656.841797 
M188.670639,588.497314 
	C186.344254,588.461670 184.000366,588.593689 181.695328,588.353271 
	C177.653564,587.931824 175.945572,589.401428 176.178421,593.632507 
	C176.461227,598.771118 176.503891,603.952637 176.180847,609.085999 
	C175.902328,613.512085 177.530182,615.269165 181.882645,614.661926 
	C182.861206,614.525391 183.874985,614.646484 184.872513,614.639893 
	C193.322250,614.583984 196.880890,611.742798 198.418472,603.828125 
	C199.763901,596.902710 196.584244,591.516785 188.670639,588.497314 
z"/>
<path fill="#000000" opacity="1.000000" stroke="none" 
	d="
M790.194824,632.587769 
	C789.753052,634.998779 789.446533,636.973694 788.976624,638.909058 
	C784.464478,657.492065 771.623291,667.828064 752.444641,668.178894 
	C743.951965,668.334229 735.450623,668.087219 726.961548,668.323669 
	C723.366333,668.423706 722.496765,667.151489 722.517395,663.698669 
	C722.658203,640.045837 722.638794,616.391541 722.557983,592.738159 
	C722.533630,585.615295 721.441772,578.481079 722.892578,570.572021 
	C730.048096,570.572021 737.153320,570.540710 744.258179,570.581055 
	C750.902283,570.618835 757.569946,570.283386 764.112427,571.945496 
	C777.636230,575.381104 786.883850,586.651611 789.383301,602.243713 
	C790.979126,612.198853 790.100708,622.168091 790.194824,632.587769 
M770.633850,613.861511 
	C770.266235,611.231384 770.020264,608.577332 769.510193,605.975159 
	C767.121399,593.787354 758.924805,587.879761 746.477356,589.074768 
	C743.602234,589.350708 742.267883,590.502258 742.272583,593.404358 
	C742.300659,610.711975 742.305176,628.019592 742.263977,645.327087 
	C742.257019,648.252075 743.561462,649.411011 746.450439,649.645569 
	C758.461792,650.620605 767.723877,643.186096 769.680359,631.177490 
	C770.570007,625.717163 770.685974,620.270813 770.633850,613.861511 
z"/>
<path fill="#000000" opacity="1.000000" stroke="none" 
	d="
M663.709961,577.256226 
	C674.295959,587.474182 675.245789,617.872498 660.326111,626.459229 
	C657.345947,628.174438 657.557129,630.315796 658.844604,633.156555 
	C662.964966,642.247620 666.847717,651.446533 670.800842,660.613037 
	C671.640259,662.559570 672.389648,664.544922 673.523438,667.365479 
	C666.222046,667.365479 659.662415,667.408203 653.103882,667.341614 
	C650.884644,667.319153 650.768616,665.278320 650.186523,663.790771 
	C646.611511,654.654663 642.857361,645.580750 639.595947,636.333435 
	C638.162842,632.270386 635.506653,632.130249 632.172363,632.494690 
	C628.556091,632.889954 629.400024,635.681824 629.380554,637.845337 
	C629.304138,646.336548 629.214783,654.831543 629.402283,663.319153 
	C629.484741,667.050171 628.022583,668.163147 624.426086,668.242004 
	C609.648560,668.566040 609.651245,668.660095 609.651306,654.143311 
	C609.651489,628.501343 609.650818,602.859436 609.650513,577.217468 
	C609.650513,575.252808 609.650513,573.288086 609.650513,570.616882 
	C621.604004,570.616882 633.030518,570.523743 644.454651,570.651367 
	C651.413391,570.729187 657.961060,572.358337 663.709961,577.256226 
M648.009827,591.464783 
	C643.232178,587.116028 637.412598,588.457092 631.848511,588.580261 
	C629.618408,588.629700 629.365051,590.409119 629.364868,592.184875 
	C629.364258,598.501892 629.362854,604.818909 629.367981,611.135925 
	C629.369263,612.712036 629.555603,614.395203 631.535828,614.444641 
	C635.983337,614.555786 640.516663,615.442627 644.821533,613.515015 
	C652.169189,610.224670 653.870117,600.298462 648.009827,591.464783 
z"/>
<path fill="#000000" opacity="1.000000" stroke="none" 
	d="
M241.031250,570.632690 
	C253.685135,570.623230 265.847076,570.749329 278.003510,570.545532 
	C282.115417,570.476624 283.432892,571.856140 283.433868,575.986267 
	C283.437103,589.365662 283.586823,589.363220 270.006226,589.329895 
	C265.175629,589.318054 260.342224,589.418091 255.515320,589.282043 
	C252.361115,589.193115 250.888443,590.396912 250.993103,593.644287 
	C251.116455,597.471252 251.135239,601.307983 251.014984,605.134644 
	C250.905243,608.625671 252.498306,609.793823 255.867203,609.690613 
	C261.525085,609.517273 267.194519,609.748962 272.855286,609.630005 
	C275.931946,609.565369 277.433777,610.530396 277.369568,613.888611 
	C277.054291,630.376343 279.551575,627.060791 264.578735,627.285950 
	C251.092148,627.488770 251.089569,627.323059 251.108093,640.688293 
	C251.109940,642.020813 251.168030,643.355835 251.106232,644.685364 
	C250.941223,648.235596 252.429001,649.771179 256.142120,649.685791 
	C263.966766,649.505676 271.800781,649.749084 279.626740,649.599731 
	C283.031769,649.534790 284.530884,650.708801 284.301331,654.218994 
	C284.106110,657.204346 284.132782,660.220581 284.303772,663.209290 
	C284.506348,666.749939 283.288757,668.301147 279.478271,668.257874 
	C264.988281,668.093079 250.493942,668.061096 236.004501,668.242249 
	C231.678421,668.296265 230.705170,666.477600 230.721512,662.544861 
	C230.839142,634.227966 230.778793,605.910400 230.785156,577.593018 
	C230.786713,570.679260 230.804245,570.678894 237.538467,570.646606 
	C238.538010,570.641846 239.537582,570.641663 241.031250,570.632690 
z"/>
<path fill="#000000" opacity="1.000000" stroke="none" 
	d="
M840.992065,668.193909 
	C829.834167,668.192200 819.171387,668.043030 808.515991,668.259888 
	C804.336914,668.344849 802.603394,667.266174 802.630127,662.694580 
	C802.799438,633.713928 802.766052,604.731445 802.632568,575.750305 
	C802.614502,571.838074 803.877930,570.521301 807.790222,570.567871 
	C821.945740,570.736328 836.105347,570.713074 850.261353,570.563232 
	C854.008606,570.523560 855.080933,571.966675 855.117615,575.572266 
	C855.257507,589.338196 855.362000,589.333679 841.573975,589.338074 
	C836.577271,589.339661 831.579407,589.432434 826.584290,589.349915 
	C823.390625,589.297180 822.110840,590.616333 822.303406,593.859375 
	C822.520203,597.511047 822.480103,601.190308 822.325195,604.847961 
	C822.179688,608.283447 823.665710,609.689819 827.044861,609.644653 
	C833.039734,609.564514 839.039246,609.756775 845.031982,609.621704 
	C848.276550,609.548645 849.435913,610.849365 849.373474,614.042969 
	C849.055542,630.306763 851.504150,626.921021 836.961243,627.324646 
	C833.299561,627.426331 829.633179,627.363342 825.968994,627.372986 
	C823.518250,627.379456 822.319519,628.532349 822.351013,631.054382 
	C822.409241,635.717407 822.475647,640.384583 822.339355,645.044250 
	C822.234009,648.644592 824.119568,649.651062 827.306274,649.628845 
	C834.967651,649.575378 842.635437,649.807251 850.289246,649.563965 
	C854.278076,649.437134 855.397339,650.921753 855.424011,654.769958 
	C855.516968,668.175049 855.642578,668.174133 842.489624,668.191650 
	C842.156433,668.192139 841.823303,668.192566 840.992065,668.193909 
z"/>
<path fill="#000000" opacity="1.000000" stroke="none" 
	d="
M548.147339,618.779541 
	C540.868774,602.746033 533.766724,587.050354 526.312866,570.577271 
	C533.388733,569.506531 539.634644,569.932068 545.847046,570.182373 
	C548.054443,570.271301 548.515747,572.475525 549.153320,574.146606 
	C552.293579,582.376526 555.338806,590.642700 558.497742,598.865356 
	C559.248413,600.819397 559.621582,603.071289 561.648560,604.344299 
	C564.421997,603.778198 564.678528,601.314026 565.398376,599.444336 
	C568.622559,591.070862 571.772522,582.665466 574.739807,574.198303 
	C575.752563,571.308533 577.117615,569.790161 580.429993,569.927734 
	C586.010742,570.159546 591.608154,569.991211 598.244690,569.991211 
	C595.835083,575.618835 593.884277,580.286255 591.845642,584.914978 
	C585.880859,598.458374 579.908264,611.998413 573.870667,625.509338 
	C572.757812,627.999573 572.255432,630.503357 572.275452,633.228149 
	C572.348694,643.212952 572.202148,653.200134 572.350891,663.183228 
	C572.404297,666.771240 571.202576,668.145081 567.479919,668.242371 
	C552.645508,668.629761 552.648438,668.735291 552.653503,653.766479 
	C552.655029,649.273071 552.360168,644.755554 552.723022,640.291565 
	C553.336426,632.745178 551.652710,625.787842 548.147339,618.779541 
z"/>
<path fill="#000000" opacity="1.000000" stroke="none" 
	d="
M406.305725,622.000000 
	C406.308197,635.994690 406.214905,649.490540 406.369720,662.983459 
	C406.413422,666.791382 405.269714,668.551025 401.241241,668.227112 
	C398.096558,667.974304 394.896606,667.972534 391.753906,668.241516 
	C387.763000,668.582947 386.579132,666.957703 386.606689,663.077454 
	C386.751129,642.753113 386.675201,622.427185 386.674988,602.101807 
	C386.674957,599.602783 386.489319,597.088074 386.706299,594.608276 
	C387.078796,590.351746 385.130951,588.966248 381.113220,589.244873 
	C377.797424,589.474792 374.450317,589.208862 371.121246,589.305481 
	C368.160156,589.391418 367.084290,588.068787 366.888367,585.140015 
	C365.918457,570.642151 365.856110,570.643860 380.175018,570.640137 
	C393.836273,570.636536 407.499329,570.762695 421.157623,570.561646 
	C425.162018,570.502686 426.240967,571.914612 426.255280,575.774292 
	C426.305176,589.241028 426.437653,589.240540 412.951965,589.308167 
	C406.301147,589.341492 406.293793,589.343018 406.292419,596.009949 
	C406.290649,604.506653 406.299622,613.003296 406.305725,622.000000 
z"/>
<path fill="#000000" opacity="1.000000" stroke="none" 
	d="
M705.349792,606.000122 
	C705.349915,624.977234 705.164917,643.457397 705.467957,661.929504 
	C705.553406,667.139160 703.790588,668.791199 698.880310,668.254700 
	C696.083069,667.949158 693.220032,668.061279 690.398560,668.210754 
	C686.903259,668.395874 685.730286,666.785706 685.737427,663.437073 
	C685.800537,633.973938 685.801758,604.510620 685.739075,575.047485 
	C685.732422,571.932800 686.715576,570.356689 690.030518,570.559692 
	C692.350464,570.701721 694.698364,570.719666 697.013977,570.539062 
	C706.085632,569.831848 705.337341,569.484436 705.346436,579.032776 
	C705.354858,587.855225 705.349121,596.677612 705.349792,606.000122 
z"/>
<path fill="#000000" opacity="1.000000" stroke="none" 
	d="
M655.536377,701.067017 
	C654.929321,705.130554 654.567627,708.449219 656.727783,712.189453 
	C659.211914,716.490601 656.213318,721.718262 651.377747,723.217102 
	C645.871765,724.923767 640.191406,724.244446 634.566162,724.211060 
	C632.773560,724.200439 631.781677,723.213806 631.773926,721.428711 
	C631.737183,712.964355 631.737976,704.499878 631.727539,696.035400 
	C631.724609,693.653748 633.162354,692.898743 635.275208,692.886963 
	C639.754456,692.861938 644.219543,692.807190 648.675842,693.569824 
	C652.817505,694.278625 655.361511,696.270874 655.536377,701.067017 
M646.571777,717.417236 
	C648.968323,716.133545 651.464539,714.740479 647.624817,712.326355 
	C645.610718,711.060059 643.224426,711.047302 640.951538,711.868896 
	C639.485229,712.399048 639.113464,713.630249 639.251709,715.066284 
	C639.377930,716.377563 640.128113,717.255981 641.392212,717.411499 
	C642.850098,717.590759 644.338989,717.518433 646.571777,717.417236 
M647.342834,703.289001 
	C647.459106,699.193420 644.556152,699.374329 641.876770,699.629883 
	C640.274536,699.782715 638.900635,700.885803 639.377136,702.698059 
	C640.240295,705.980957 642.931885,704.939819 645.149292,704.725037 
	C645.758179,704.666016 646.324768,704.170471 647.342834,703.289001 
z"/>
<path fill="#000000" opacity="1.000000" stroke="none" 
	d="
M279.932739,707.591492 
	C281.375092,704.007324 280.602234,700.497925 280.730347,697.042236 
	C280.822632,694.552795 281.421844,692.890564 284.367310,692.857300 
	C287.341553,692.823669 288.025085,694.521606 288.026428,696.991394 
	C288.030457,704.466675 288.080170,711.942200 288.038818,719.417175 
	C288.029175,721.165771 288.515533,723.412903 286.223389,724.089539 
	C283.918121,724.770020 281.658844,724.532043 280.010651,722.250366 
	C277.774750,719.155090 275.415039,716.147522 273.050781,713.147705 
	C272.049011,711.876587 271.283173,710.282104 269.374176,709.927917 
	C266.679291,711.032715 267.498077,713.462952 267.368835,715.486206 
	C267.252563,717.307068 267.290619,719.139221 267.300568,720.966187 
	C267.312744,723.204285 266.328003,724.302124 263.991791,724.283386 
	C261.687592,724.264832 260.679443,723.217346 260.682556,720.958008 
	C260.693298,713.150452 260.632660,705.342590 260.684845,697.535461 
	C260.696320,695.821350 260.128204,693.598633 262.657410,693.041138 
	C264.859863,692.555725 266.939606,692.826538 268.449890,694.878174 
	C270.614471,697.818604 272.785065,700.759949 275.088287,703.590820 
	C276.391937,705.193054 277.145691,707.483582 279.932739,707.591492 
z"/>
<path fill="#000000" opacity="1.000000" stroke="none" 
	d="
M597.162354,717.957581 
	C595.499207,716.115784 594.278320,713.983337 591.599915,715.125366 
	C589.315369,716.099487 589.368774,718.267212 589.376221,720.253479 
	C589.385803,722.787231 588.733337,724.432983 585.729187,724.309448 
	C582.854797,724.191284 582.661621,722.328491 582.662964,720.192871 
	C582.667725,712.363220 582.686768,704.533447 582.657776,696.703918 
	C582.649292,694.398071 583.273315,692.732910 585.976624,692.824890 
	C590.461365,692.977600 594.974792,692.441833 599.429077,693.316284 
	C607.585571,694.917480 611.463013,702.847107 606.484985,709.468933 
	C603.288025,713.721680 604.169189,716.389832 606.930359,719.711426 
	C607.767822,720.718872 608.587646,721.797913 608.624207,723.208740 
	C602.961487,725.466614 602.301819,725.170654 597.162354,717.957581 
M600.087524,701.425781 
	C598.668518,699.803528 596.811035,699.325195 594.752563,699.407715 
	C592.361938,699.503540 589.543274,698.838562 589.366638,702.681824 
	C589.226807,705.725098 589.846313,707.874634 593.605347,707.685974 
	C597.363281,707.497437 601.259644,707.721130 600.087524,701.425781 
z"/>
<path fill="#000000" opacity="1.000000" stroke="none" 
	d="
M507.413330,704.792725 
	C509.981232,695.099854 518.227234,690.497986 527.973328,692.974854 
	C535.855286,694.977905 540.745850,703.397278 538.818665,711.645447 
	C536.583496,721.211914 529.237000,725.984802 519.513611,724.187561 
	C510.647095,722.548706 505.646088,714.765137 507.413330,704.792725 
M522.615540,699.280701 
	C516.357361,700.584412 513.215393,704.952942 514.443604,710.642822 
	C515.412964,715.133728 520.103516,718.350708 524.528564,717.559631 
	C529.357666,716.696289 532.583069,711.911926 531.571533,706.627808 
	C530.733032,702.247681 528.017639,699.609985 522.615540,699.280701 
z"/>
<path fill="#000000" opacity="1.000000" stroke="none" 
	d="
M326.994049,704.031616 
	C327.023285,691.362854 325.637024,692.925293 337.507477,692.841248 
	C340.665680,692.818848 343.824463,692.855530 346.982788,692.883789 
	C349.263824,692.904236 350.185303,694.108215 350.226288,696.351685 
	C350.270721,698.785828 349.122284,699.541931 346.855652,699.450928 
	C344.200684,699.344238 341.533936,699.367615 338.878815,699.483704 
	C336.905945,699.569946 335.191620,700.234497 335.299927,702.681946 
	C335.394043,704.809509 336.944794,705.429688 338.727905,705.534790 
	C340.883423,705.661804 343.047607,705.666931 345.208252,705.675903 
	C347.225372,705.684265 348.267181,706.536438 348.261230,708.668579 
	C348.255249,710.800781 347.650177,712.243164 345.203430,712.233276 
	C342.876434,712.223877 340.548126,712.229858 338.222443,712.297974 
	C336.586548,712.345886 335.201660,712.871338 335.227753,714.845093 
	C335.252502,716.720459 336.534912,717.480347 338.182526,717.542480 
	C341.171478,717.655151 344.165985,717.654419 347.157928,717.642700 
	C349.250641,717.634521 350.758148,718.168396 350.695831,720.676575 
	C350.636292,723.072205 349.645416,724.356262 347.073456,724.321594 
	C341.754272,724.249878 336.431732,724.208740 331.114105,724.321838 
	C327.983521,724.388367 327.033295,722.691040 327.022766,719.987000 
	C327.002716,714.833374 327.003265,709.679626 326.994049,704.031616 
z"/>
<path fill="#000000" opacity="1.000000" stroke="none" 
	d="
M717.567017,720.383667 
	C712.602051,715.506409 705.224304,716.221191 702.054443,721.811584 
	C700.151489,725.167542 697.679993,724.625977 694.914246,723.902222 
	C693.983521,722.205566 694.973511,720.926514 695.531738,719.590759 
	C698.729553,711.937256 701.929871,704.284790 705.144104,696.638184 
	C706.095703,694.374207 707.357788,692.745056 710.271301,692.800110 
	C713.200745,692.855408 714.230347,694.576416 715.198242,696.856384 
	C718.310181,704.186890 721.549072,711.463501 724.698730,718.778137 
	C725.336548,720.259521 726.288086,721.695007 725.966370,723.717163 
	C722.195007,725.428650 719.304443,725.050110 717.567017,720.383667 
z"/>
<path fill="#000000" opacity="1.000000" stroke="none" 
	d="
M681.937622,717.641479 
	C683.563293,717.654419 684.726990,717.686646 685.890259,717.677063 
	C688.021606,717.659485 688.892090,718.765015 688.731934,720.810608 
	C688.578979,722.762390 688.209656,724.405640 685.621948,724.361084 
	C679.971191,724.263672 674.317993,724.273376 668.666016,724.299927 
	C666.440735,724.310364 665.144409,723.337463 665.126709,721.099792 
	C665.060913,712.790588 665.042419,704.480896 665.057434,696.171448 
	C665.062073,693.623657 666.583130,692.783264 668.976624,692.818848 
	C673.962769,692.892944 678.951782,692.901062 683.937561,692.817017 
	C686.744995,692.769653 687.830261,694.152344 687.797485,696.775330 
	C687.764282,699.426880 685.976624,699.503052 684.010132,699.478455 
	C681.352966,699.445251 678.684082,699.372742 676.040161,699.576477 
	C674.098572,699.726013 672.398438,700.613159 672.553162,702.974060 
	C672.696106,705.154541 674.432190,705.501282 676.163696,705.571045 
	C678.488037,705.664734 680.817017,705.657837 683.144104,705.666626 
	C685.100525,705.673950 686.266235,706.384644 686.274170,708.579102 
	C686.282043,710.738281 685.594604,712.143738 683.222168,712.188171 
	C681.394409,712.222351 679.551025,712.074585 677.741638,712.264954 
	C675.680542,712.481750 672.394043,711.195190 672.553284,714.992798 
	C672.702454,718.546936 675.864990,717.383728 677.986877,717.615784 
	C679.136963,717.741516 680.311829,717.640564 681.937622,717.641479 
z"/>
<path fill="#000000" opacity="1.000000" stroke="none" 
	d="
M366.456543,698.527222 
	C367.779999,695.688171 368.277710,692.865417 372.183899,692.803101 
	C376.404053,692.735718 376.873230,695.828796 378.016510,698.477051 
	C381.050049,705.503967 384.025452,712.556030 387.001770,719.607544 
	C387.506439,720.803162 388.378876,721.944153 387.707947,723.658264 
	C384.512512,725.032593 382.087677,724.638245 380.139709,721.043579 
	C377.219666,715.655029 367.140503,715.575806 364.547119,721.029602 
	C362.673431,724.969849 360.186676,724.920959 355.971436,723.565857 
	C359.455200,715.245361 362.880493,707.064636 366.456543,698.527222 
z"/>
<path fill="#000000" opacity="1.000000" stroke="none" 
	d="
M735.271729,708.648193 
	C731.938110,705.190796 731.939026,701.471741 733.510132,697.750427 
	C735.229309,693.678345 738.856567,692.654114 742.931641,692.593689 
	C746.109314,692.546570 749.279663,692.590698 752.173279,694.070862 
	C753.585938,694.793518 755.547485,695.601440 754.463013,697.739563 
	C753.524536,699.589966 752.487915,701.818176 749.607544,700.812683 
	C747.895447,700.215027 746.302673,699.235291 744.383362,699.331055 
	C743.138550,699.393127 742.000854,699.715576 741.561035,700.959229 
	C741.003113,702.536865 742.013184,703.582153 743.281921,704.108154 
	C745.110535,704.866272 747.065613,705.313965 748.949585,705.945129 
	C753.613464,707.507385 756.081360,710.711121 755.770996,715.683533 
	C755.464172,720.598877 752.143005,723.097107 747.816223,724.039062 
	C742.956848,725.096985 738.225281,724.232544 734.009033,721.383057 
	C732.293091,720.223328 730.605103,718.978333 732.245178,716.574341 
	C733.679810,714.471497 735.220154,712.970154 737.896301,715.035645 
	C739.596497,716.347900 741.464661,717.578674 743.755432,717.485107 
	C745.282166,717.422729 746.920593,717.018311 747.175232,715.224548 
	C747.394409,713.680542 746.084290,712.950073 744.804749,712.418152 
	C741.762085,711.153076 738.270447,711.072754 735.271729,708.648193 
z"/>
<path fill="#000000" opacity="1.000000" stroke="none" 
	d="
M404.271606,699.965088 
	C402.485809,703.383179 405.146179,703.790405 407.036621,704.574463 
	C409.175873,705.461792 411.507050,705.938965 413.551941,706.989380 
	C416.962799,708.741516 418.644592,711.701294 418.275757,715.593262 
	C417.933533,719.204529 416.063446,721.813171 412.659607,723.161377 
	C406.968964,725.415283 401.554932,724.496887 396.480438,721.372559 
	C394.542206,720.179138 393.122742,718.661316 395.016113,716.103516 
	C396.645782,713.901917 398.186890,713.474121 400.359497,715.283997 
	C401.904785,716.571289 403.702332,717.497253 405.780914,717.558228 
	C407.328644,717.603699 408.915131,717.363831 409.463226,715.649780 
	C410.081299,713.717041 408.541077,712.955566 407.152222,712.404480 
	C405.310730,711.673828 403.363922,711.213501 401.496246,710.542786 
	C396.478821,708.740967 394.028534,704.984924 394.769165,700.331604 
	C395.465271,695.958130 398.929047,693.007507 403.906494,692.693604 
	C407.572815,692.462402 411.252869,692.474792 414.621613,694.237976 
	C416.085815,695.004333 417.870758,695.991211 416.563202,698.027710 
	C415.513733,699.662231 414.739594,702.379456 411.710907,700.651062 
	C409.460663,699.366943 407.088470,698.827637 404.271606,699.965088 
z"/>
<path fill="#000000" opacity="1.000000" stroke="none" 
	d="
M432.989655,694.370850 
	C433.221466,696.116821 433.313690,697.441711 433.345276,698.768005 
	C433.499969,705.266602 436.378723,707.345215 442.584656,705.501282 
	C444.698486,704.873291 445.395172,703.303345 445.553314,701.379822 
	C445.689117,699.727783 445.694977,698.060303 445.670746,696.401001 
	C445.638000,694.159058 446.605560,693.044312 448.925232,692.996094 
	C451.196228,692.948975 452.324524,693.860291 452.315186,696.190552 
	C452.281952,704.495178 452.282654,712.799927 452.275787,721.104675 
	C452.273895,723.423645 451.092712,724.346130 448.824127,724.258972 
	C446.812622,724.181702 445.719238,723.330872 445.705536,721.258179 
	C445.700043,720.427917 445.575104,719.586670 445.668915,718.769348 
	C446.171753,714.388428 445.064850,711.851013 439.838013,712.188904 
	C434.121216,712.558472 433.528809,712.854248 433.340759,718.956055 
	C433.295349,720.430237 433.671204,722.056213 432.688965,723.296509 
	C431.620728,724.645386 429.986023,724.408081 428.529022,724.080750 
	C426.574249,723.641541 426.697418,721.936768 426.689667,720.473450 
	C426.649231,712.832886 426.600098,705.191345 426.679840,697.551514 
	C426.731201,692.630432 427.780548,692.075256 432.989655,694.370850 
z"/>
<path fill="#000000" opacity="1.000000" stroke="none" 
	d="
M557.092896,716.974792 
	C563.396057,717.950928 566.228455,715.815186 566.567322,709.829224 
	C566.811523,705.515564 566.641296,701.176147 566.590637,696.848999 
	C566.565247,694.680115 566.677490,692.823608 569.618164,692.831238 
	C572.116577,692.837769 573.302368,693.888855 573.278320,696.408752 
	C573.224487,702.067017 573.546936,707.750244 573.122314,713.378418 
	C572.545349,721.024902 567.922607,724.471436 559.312134,724.358276 
	C551.766052,724.259155 547.145874,720.301758 546.746277,713.071655 
	C546.443665,707.595154 546.712402,702.088684 546.657898,696.596313 
	C546.633484,694.133972 547.600952,692.895874 550.194763,692.948364 
	C552.622803,692.997559 553.334045,694.322754 553.325745,696.470886 
	C553.308899,700.798523 553.399780,705.127258 553.336060,709.453857 
	C553.291199,712.496338 554.214905,714.999634 557.092896,716.974792 
z"/>
<path fill="#000000" opacity="1.000000" stroke="none" 
	d="
M251.346085,700.093872 
	C251.344299,704.237610 251.393890,707.894409 251.328629,711.549194 
	C251.183121,719.697632 246.954865,724.163818 239.284271,724.354736 
	C230.118576,724.582886 225.302277,720.778931 224.775269,712.390930 
	C224.442490,707.094299 224.751068,701.759583 224.685089,696.443054 
	C224.652603,693.826538 225.949326,692.952576 228.390503,692.989014 
	C230.951324,693.027344 231.330780,694.611267 231.331635,696.632385 
	C231.333450,700.952820 231.264938,705.276428 231.407059,709.592712 
	C231.516785,712.925049 232.682587,715.873047 235.999741,717.255188 
	C240.137146,718.979065 244.112122,715.861023 244.536026,710.331177 
	C244.852737,706.199768 244.618744,702.027283 244.664810,697.873474 
	C244.690460,695.562134 244.316635,693.019836 247.889832,692.903992 
	C251.458267,692.788330 251.323059,695.215576 251.337128,697.612000 
	C251.341034,698.276672 251.342667,698.941406 251.346085,700.093872 
z"/>
<path fill="#000000" opacity="1.000000" stroke="none" 
	d="
M784.066772,700.109009 
	C779.052246,700.058594 776.984863,702.102661 777.289490,706.868225 
	C777.575684,711.344238 777.272278,715.854797 777.365662,720.347351 
	C777.418884,722.911072 776.767212,724.452026 773.797424,724.448059 
	C770.768616,724.443970 769.656433,723.072998 769.709045,720.173706 
	C769.793701,715.514587 769.626648,710.850647 769.722778,706.192017 
	C769.794556,702.713806 768.839722,700.258362 764.849304,700.174927 
	C762.153381,700.118530 761.640381,698.472656 761.657959,696.163330 
	C761.678894,693.409912 763.294006,692.849243 765.561462,692.851929 
	C771.054565,692.858398 776.547974,692.798706 782.040710,692.836365 
	C783.678528,692.847595 785.683533,692.734314 786.063049,694.883667 
	C786.390076,696.735535 787.026001,698.951660 784.066772,700.109009 
z"/>
<path fill="#000000" opacity="1.000000" stroke="none" 
	d="
M487.229706,723.926514 
	C486.521362,723.351501 485.961884,722.916443 486.004486,722.551636 
	C487.231110,712.040161 481.018036,704.324585 476.140778,696.104980 
	C475.729156,695.411255 475.157471,694.731018 475.650085,693.596191 
	C484.270966,689.800049 484.267853,700.208130 489.373718,702.345520 
	C494.093781,699.782776 494.128510,690.037415 503.008759,693.693298 
	C501.911011,698.219788 498.902283,701.626404 496.657654,705.390869 
	C493.982758,709.877014 491.505188,714.284973 492.288513,719.827881 
	C492.769806,723.233521 491.248016,724.892456 487.229706,723.926514 
z"/>
<path fill="#000000" opacity="1.000000" stroke="none" 
	d="
M298.030640,722.661865 
	C297.801636,713.884094 297.782440,705.553467 297.655151,697.224548 
	C297.612488,694.433472 298.385742,692.755066 301.583069,692.889648 
	C304.809937,693.025513 304.707886,695.005005 304.602600,697.385010 
	C304.411255,701.710632 304.333893,706.049988 304.440491,710.377991 
	C304.588379,716.379883 305.936005,717.543640 311.949707,717.666443 
	C314.244293,717.713196 316.601959,717.208496 318.857117,718.163513 
	C319.629578,719.946655 319.795044,721.702209 318.957367,724.092102 
	C312.142761,723.872925 305.129333,725.662598 298.030640,722.661865 
z"/>
<path fill="#000000" opacity="1.000000" stroke="none" 
	d="
M490.638306,505.350128 
	C488.326782,511.032227 486.667603,516.672485 481.360901,520.404480 
	C474.337555,512.836670 475.956573,502.320221 471.240082,493.388367 
	C469.470093,497.852509 471.028748,501.110687 472.038269,504.282990 
	C473.548126,509.027649 475.253479,513.735657 477.261841,518.288879 
	C479.249695,522.795715 477.828064,525.429016 473.674225,527.526855 
	C463.378906,532.726379 451.876038,527.782410 446.171143,517.531738 
	C443.446442,512.635925 439.509735,508.266296 437.658752,502.770782 
	C434.161682,492.388031 432.829285,481.782532 434.668243,470.874634 
	C435.238983,467.489105 436.959351,467.075623 439.539764,468.779785 
	C442.809479,470.939148 445.962311,473.288544 450.522278,474.932983 
	C448.840271,470.175629 444.930237,469.126160 441.964691,467.241760 
	C435.915588,463.398132 435.488281,462.791321 438.355438,456.184967 
	C442.280060,447.142059 446.983185,438.885223 457.756744,436.367950 
	C461.823212,435.417786 463.358368,436.575470 463.370605,440.618805 
	C463.381592,444.244812 463.683044,447.869934 463.912445,452.669525 
	C464.980164,448.085571 466.079712,444.666748 466.518951,441.165100 
	C467.131317,436.282990 469.490723,436.415527 473.063232,438.137482 
	C480.014252,441.487976 484.602509,447.053497 487.855988,453.794739 
	C490.242249,458.739197 492.028320,463.895294 492.618652,469.457092 
	C492.982635,472.886169 491.831482,474.153076 488.503510,473.697845 
	C484.623230,473.166992 481.035522,473.799744 477.324890,476.627228 
	C481.496155,478.481934 485.038055,476.955261 488.181488,475.916229 
	C492.126678,474.612152 493.470947,475.935669 493.861206,479.440338 
	C494.835266,488.187744 493.185760,496.631317 490.638306,505.350128 
M450.854645,503.250793 
	C449.971954,505.176270 449.089233,507.101746 448.206512,509.027222 
	C451.055084,503.655090 456.469452,499.946381 458.906250,492.997742 
	C454.008240,495.567627 452.847839,499.279846 450.854645,503.250793 
z"/>
</svg>